<?xml version="1.0" encoding="UTF-8"?><svg xmlns="http://www.w3.org/2000/svg" xmlns:xlink="http://www.w3.org/1999/xlink" stroke-dasharray="none" shape-rendering="auto" font-family="'Dialog'" width="1048" text-rendering="auto" fill-opacity="1" contentScriptType="text/ecmascript" color-interpolation="auto" color-rendering="auto" preserveAspectRatio="xMidYMid meet" font-size="12" viewBox="0 0 1048 795" fill="black" stroke="black" image-rendering="auto" stroke-miterlimit="10" zoomAndPan="magnify" version="1.0" stroke-linecap="square" stroke-linejoin="miter" contentStyleType="text/css" font-style="normal" height="795" stroke-width="1" stroke-dashoffset="0" font-weight="normal" stroke-opacity="1">
<!--Generated by the Batik Graphics2D SVG Generator-->
<defs id="genericDefs"/>
<g>
<defs id="defs1">
<linearGradient x1="448" x2="448" y1="641" gradientUnits="userSpaceOnUse" y2="711" xlink:type="simple" xlink:actuate="onLoad" id="linearGradient1" xlink:show="other" spreadMethod="pad">
<stop stop-opacity="1" stop-color="white" offset="0%"/>
<stop stop-opacity="1" stop-color="white" offset="100%"/>
</linearGradient>
<linearGradient x1="518" x2="518" y1="494" gradientUnits="userSpaceOnUse" y2="564" xlink:type="simple" xlink:actuate="onLoad" id="linearGradient2" xlink:show="other" spreadMethod="pad">
<stop stop-opacity="1" stop-color="white" offset="0%"/>
<stop stop-opacity="1" stop-color="white" offset="100%"/>
</linearGradient>
<linearGradient x1="518" x2="518" y1="176" gradientUnits="userSpaceOnUse" y2="246" xlink:type="simple" xlink:actuate="onLoad" id="linearGradient3" xlink:show="other" spreadMethod="pad">
<stop stop-opacity="1" stop-color="white" offset="0%"/>
<stop stop-opacity="1" stop-color="white" offset="100%"/>
</linearGradient>
<linearGradient x1="304" x2="304" y1="174" gradientUnits="userSpaceOnUse" y2="244" xlink:type="simple" xlink:actuate="onLoad" id="linearGradient4" xlink:show="other" spreadMethod="pad">
<stop stop-opacity="1" stop-color="white" offset="0%"/>
<stop stop-opacity="1" stop-color="white" offset="100%"/>
</linearGradient>
<linearGradient x1="285" x2="285" y1="641" gradientUnits="userSpaceOnUse" y2="741" xlink:type="simple" xlink:actuate="onLoad" id="linearGradient5" xlink:show="other" spreadMethod="pad">
<stop stop-opacity="1" stop-color="white" offset="0%"/>
<stop stop-opacity="1" stop-color="white" offset="100%"/>
</linearGradient>
<linearGradient x1="543" x2="543" y1="319" gradientUnits="userSpaceOnUse" y2="421" xlink:type="simple" xlink:actuate="onLoad" id="linearGradient6" xlink:show="other" spreadMethod="pad">
<stop stop-opacity="1" stop-color="white" offset="0%"/>
<stop stop-opacity="1" stop-color="white" offset="100%"/>
</linearGradient>
<linearGradient x1="759" x2="759" y1="48" gradientUnits="userSpaceOnUse" y2="404" xlink:type="simple" xlink:actuate="onLoad" id="linearGradient7" xlink:show="other" spreadMethod="pad">
<stop stop-opacity="1" stop-color="white" offset="0%"/>
<stop stop-opacity="1" stop-color="white" offset="100%"/>
</linearGradient>
<linearGradient x1="827" x2="827" y1="92" gradientUnits="userSpaceOnUse" y2="162" xlink:type="simple" xlink:actuate="onLoad" id="linearGradient8" xlink:show="other" spreadMethod="pad">
<stop stop-opacity="1" stop-color="white" offset="0%"/>
<stop stop-opacity="1" stop-color="white" offset="100%"/>
</linearGradient>
<linearGradient x1="810" x2="810" y1="216" gradientUnits="userSpaceOnUse" y2="378" xlink:type="simple" xlink:actuate="onLoad" id="linearGradient9" xlink:show="other" spreadMethod="pad">
<stop stop-opacity="1" stop-color="white" offset="0%"/>
<stop stop-opacity="1" stop-color="white" offset="100%"/>
</linearGradient>
<linearGradient x1="10" x2="10" y1="136" gradientUnits="userSpaceOnUse" y2="460" xlink:type="simple" xlink:actuate="onLoad" id="linearGradient10" xlink:show="other" spreadMethod="pad">
<stop stop-opacity="1" stop-color="white" offset="0%"/>
<stop stop-opacity="1" stop-color="white" offset="100%"/>
</linearGradient>
<linearGradient x1="59" x2="59" y1="174" gradientUnits="userSpaceOnUse" y2="244" xlink:type="simple" xlink:actuate="onLoad" id="linearGradient11" xlink:show="other" spreadMethod="pad">
<stop stop-opacity="1" stop-color="white" offset="0%"/>
<stop stop-opacity="1" stop-color="white" offset="100%"/>
</linearGradient>
<linearGradient x1="21" x2="21" y1="319" gradientUnits="userSpaceOnUse" y2="421" xlink:type="simple" xlink:actuate="onLoad" id="linearGradient12" xlink:show="other" spreadMethod="pad">
<stop stop-opacity="1" stop-color="white" offset="0%"/>
<stop stop-opacity="1" stop-color="white" offset="100%"/>
</linearGradient>
<linearGradient x1="161" x2="161" y1="319" gradientUnits="userSpaceOnUse" y2="421" xlink:type="simple" xlink:actuate="onLoad" id="linearGradient13" xlink:show="other" spreadMethod="pad">
<stop stop-opacity="1" stop-color="white" offset="0%"/>
<stop stop-opacity="1" stop-color="white" offset="100%"/>
</linearGradient>
<linearGradient x1="806" x2="806" y1="433" gradientUnits="userSpaceOnUse" y2="785" xlink:type="simple" xlink:actuate="onLoad" id="linearGradient14" xlink:show="other" spreadMethod="pad">
<stop stop-opacity="1" stop-color="white" offset="0%"/>
<stop stop-opacity="1" stop-color="white" offset="100%"/>
</linearGradient>
<linearGradient x1="832" x2="832" y1="696" gradientUnits="userSpaceOnUse" y2="766" xlink:type="simple" xlink:actuate="onLoad" id="linearGradient15" xlink:show="other" spreadMethod="pad">
<stop stop-opacity="1" stop-color="white" offset="0%"/>
<stop stop-opacity="1" stop-color="white" offset="100%"/>
</linearGradient>
<linearGradient x1="838" x2="838" y1="472" gradientUnits="userSpaceOnUse" y2="542" xlink:type="simple" xlink:actuate="onLoad" id="linearGradient16" xlink:show="other" spreadMethod="pad">
<stop stop-opacity="1" stop-color="white" offset="0%"/>
<stop stop-opacity="1" stop-color="white" offset="100%"/>
</linearGradient>
<linearGradient x1="863" x2="863" y1="569" gradientUnits="userSpaceOnUse" y2="669" xlink:type="simple" xlink:actuate="onLoad" id="linearGradient17" xlink:show="other" spreadMethod="pad">
<stop stop-opacity="1" stop-color="white" offset="0%"/>
<stop stop-opacity="1" stop-color="white" offset="100%"/>
</linearGradient>
<linearGradient x1="662" x2="662" y1="641" gradientUnits="userSpaceOnUse" y2="741" xlink:type="simple" xlink:actuate="onLoad" id="linearGradient18" xlink:show="other" spreadMethod="pad">
<stop stop-opacity="1" stop-color="white" offset="0%"/>
<stop stop-opacity="1" stop-color="white" offset="100%"/>
</linearGradient>
<linearGradient x1="331" x2="331" y1="319" gradientUnits="userSpaceOnUse" y2="421" xlink:type="simple" xlink:actuate="onLoad" id="linearGradient19" xlink:show="other" spreadMethod="pad">
<stop stop-opacity="1" stop-color="white" offset="0%"/>
<stop stop-opacity="1" stop-color="white" offset="100%"/>
</linearGradient>
<clipPath clipPathUnits="userSpaceOnUse" id="clipPath1">
<path d="M448 641 L448 710 L597 710 L597 641 Z"/>
</clipPath>
<clipPath clipPathUnits="userSpaceOnUse" id="clipPath2">
<path d="M484 643 L561 643 L561 660 L484 660 L484 643 Z"/>
</clipPath>
<clipPath clipPathUnits="userSpaceOnUse" id="clipPath3">
<path d="M486 659 L560 659 L560 676 L486 676 L486 659 Z"/>
</clipPath>
<clipPath clipPathUnits="userSpaceOnUse" id="clipPath4">
<path d="M447 675 L599 675 L599 712 L447 712 L447 675 Z"/>
</clipPath>
<clipPath clipPathUnits="userSpaceOnUse" id="clipPath5">
<path d="M447 640 L599 640 L599 712 L447 712 L447 640 Z"/>
</clipPath>
<clipPath clipPathUnits="userSpaceOnUse" id="clipPath6">
<path d="M518 494 L518 563 L667 563 L667 494 Z"/>
</clipPath>
<clipPath clipPathUnits="userSpaceOnUse" id="clipPath7">
<path d="M554 496 L631 496 L631 513 L554 513 L554 496 Z"/>
</clipPath>
<clipPath clipPathUnits="userSpaceOnUse" id="clipPath8">
<path d="M555 512 L630 512 L630 529 L555 529 L555 512 Z"/>
</clipPath>
<clipPath clipPathUnits="userSpaceOnUse" id="clipPath9">
<path d="M517 528 L669 528 L669 565 L517 565 L517 528 Z"/>
</clipPath>
<clipPath clipPathUnits="userSpaceOnUse" id="clipPath10">
<path d="M517 493 L669 493 L669 565 L517 565 L517 493 Z"/>
</clipPath>
<clipPath clipPathUnits="userSpaceOnUse" id="clipPath11">
<path d="M518 176 L518 245 L667 245 L667 176 Z"/>
</clipPath>
<clipPath clipPathUnits="userSpaceOnUse" id="clipPath12">
<path d="M554 178 L631 178 L631 195 L554 195 L554 178 Z"/>
</clipPath>
<clipPath clipPathUnits="userSpaceOnUse" id="clipPath13">
<path d="M552 194 L634 194 L634 211 L552 211 L552 194 Z"/>
</clipPath>
<clipPath clipPathUnits="userSpaceOnUse" id="clipPath14">
<path d="M517 210 L669 210 L669 247 L517 247 L517 210 Z"/>
</clipPath>
<clipPath clipPathUnits="userSpaceOnUse" id="clipPath15">
<path d="M517 175 L669 175 L669 247 L517 247 L517 175 Z"/>
</clipPath>
<clipPath clipPathUnits="userSpaceOnUse" id="clipPath16">
<path d="M304 174 L304 243 L453 243 L453 174 Z"/>
</clipPath>
<clipPath clipPathUnits="userSpaceOnUse" id="clipPath17">
<path d="M340 176 L417 176 L417 193 L340 193 L340 176 Z"/>
</clipPath>
<clipPath clipPathUnits="userSpaceOnUse" id="clipPath18">
<path d="M324 192 L434 192 L434 209 L324 209 L324 192 Z"/>
</clipPath>
<clipPath clipPathUnits="userSpaceOnUse" id="clipPath19">
<path d="M303 208 L455 208 L455 245 L303 245 L303 208 Z"/>
</clipPath>
<clipPath clipPathUnits="userSpaceOnUse" id="clipPath20">
<path d="M303 173 L455 173 L455 245 L303 245 L303 173 Z"/>
</clipPath>
<clipPath clipPathUnits="userSpaceOnUse" id="clipPath21">
<path d="M285 641 L285 740 L384 740 L384 641 Z"/>
</clipPath>
<clipPath clipPathUnits="userSpaceOnUse" id="clipPath22">
<path d="M304 643 L365 643 L365 660 L304 660 L304 643 Z"/>
</clipPath>
<clipPath clipPathUnits="userSpaceOnUse" id="clipPath23">
<path d="M315 659 L355 659 L355 676 L315 676 L315 659 Z"/>
</clipPath>
<clipPath clipPathUnits="userSpaceOnUse" id="clipPath24">
<path d="M284 675 L386 675 L386 709 L284 709 L284 675 Z"/>
</clipPath>
<clipPath clipPathUnits="userSpaceOnUse" id="clipPath25">
<path d="M284 708 L386 708 L386 742 L284 742 L284 708 Z"/>
</clipPath>
<clipPath clipPathUnits="userSpaceOnUse" id="clipPath26">
<path d="M284 640 L386 640 L386 742 L284 742 L284 640 Z"/>
</clipPath>
<clipPath clipPathUnits="userSpaceOnUse" id="clipPath27">
<path d="M543 319 L543 420 L642 420 L642 319 Z"/>
</clipPath>
<clipPath clipPathUnits="userSpaceOnUse" id="clipPath28">
<path d="M562 321 L623 321 L623 338 L562 338 L562 321 Z"/>
</clipPath>
<clipPath clipPathUnits="userSpaceOnUse" id="clipPath29">
<path d="M571 337 L615 337 L615 354 L571 354 L571 337 Z"/>
</clipPath>
<clipPath clipPathUnits="userSpaceOnUse" id="clipPath30">
<path d="M542 353 L644 353 L644 384 L542 384 L542 353 Z"/>
</clipPath>
<clipPath clipPathUnits="userSpaceOnUse" id="clipPath31">
<path d="M547 385 L639 385 L639 402 L547 402 L547 385 Z"/>
</clipPath>
<clipPath clipPathUnits="userSpaceOnUse" id="clipPath32">
<path d="M542 383 L644 383 L644 422 L542 422 L542 383 Z"/>
</clipPath>
<clipPath clipPathUnits="userSpaceOnUse" id="clipPath33">
<path d="M542 318 L644 318 L644 422 L542 422 L542 318 Z"/>
</clipPath>
<clipPath clipPathUnits="userSpaceOnUse" id="clipPath34">
<path d="M759 48 L759 404 L1038 404 L1038 69 L827 69 L827 48 Z"/>
</clipPath>
<clipPath clipPathUnits="userSpaceOnUse" id="clipPath35">
<path d="M757 46 L1040 46 L1040 406 L757 406 L757 46 Z"/>
</clipPath>
<clipPath clipPathUnits="userSpaceOnUse" id="clipPath36">
<path d="M763 50 L823 50 L823 67 L763 67 L763 50 Z"/>
</clipPath>
<clipPath clipPathUnits="userSpaceOnUse" id="clipPath37">
<path d="M827 92 L827 161 L976 161 L976 92 Z"/>
</clipPath>
<clipPath clipPathUnits="userSpaceOnUse" id="clipPath38">
<path d="M863 94 L940 94 L940 111 L863 111 L863 94 Z"/>
</clipPath>
<clipPath clipPathUnits="userSpaceOnUse" id="clipPath39">
<path d="M872 110 L932 110 L932 127 L872 127 L872 110 Z"/>
</clipPath>
<clipPath clipPathUnits="userSpaceOnUse" id="clipPath40">
<path d="M826 126 L978 126 L978 163 L826 163 L826 126 Z"/>
</clipPath>
<clipPath clipPathUnits="userSpaceOnUse" id="clipPath41">
<path d="M826 91 L978 91 L978 163 L826 163 L826 91 Z"/>
</clipPath>
<clipPath clipPathUnits="userSpaceOnUse" id="clipPath42">
<path d="M810 216 L810 377 L994 377 L994 216 Z"/>
</clipPath>
<clipPath clipPathUnits="userSpaceOnUse" id="clipPath43">
<path d="M872 218 L933 218 L933 235 L872 235 L872 218 Z"/>
</clipPath>
<clipPath clipPathUnits="userSpaceOnUse" id="clipPath44">
<path d="M894 234 L910 234 L910 251 L894 251 L894 234 Z"/>
</clipPath>
<clipPath clipPathUnits="userSpaceOnUse" id="clipPath45">
<path d="M809 250 L996 250 L996 277 L809 277 L809 250 Z"/>
</clipPath>
<clipPath clipPathUnits="userSpaceOnUse" id="clipPath46">
<path d="M814 278 L906 278 L906 295 L814 295 L814 278 Z"/>
</clipPath>
<clipPath clipPathUnits="userSpaceOnUse" id="clipPath47">
<path d="M814 293 L926 293 L926 310 L814 310 L814 293 Z"/>
</clipPath>
<clipPath clipPathUnits="userSpaceOnUse" id="clipPath48">
<path d="M814 308 L989 308 L989 325 L814 325 L814 308 Z"/>
</clipPath>
<clipPath clipPathUnits="userSpaceOnUse" id="clipPath49">
<path d="M814 323 L991 323 L991 340 L814 340 L814 323 Z"/>
</clipPath>
<clipPath clipPathUnits="userSpaceOnUse" id="clipPath50">
<path d="M814 338 L919 338 L919 355 L814 355 L814 338 Z"/>
</clipPath>
<clipPath clipPathUnits="userSpaceOnUse" id="clipPath51">
<path d="M809 276 L996 276 L996 379 L809 379 L809 276 Z"/>
</clipPath>
<clipPath clipPathUnits="userSpaceOnUse" id="clipPath52">
<path d="M809 215 L996 215 L996 379 L809 379 L809 215 Z"/>
</clipPath>
<clipPath clipPathUnits="userSpaceOnUse" id="clipPath53">
<path d="M758 68 L1039 68 L1039 405 L758 405 L758 68 Z"/>
</clipPath>
<clipPath clipPathUnits="userSpaceOnUse" id="clipPath54">
<path d="M10 136 L10 460 L273 460 L273 157 L69 157 L69 136 Z"/>
</clipPath>
<clipPath clipPathUnits="userSpaceOnUse" id="clipPath55">
<path d="M8 134 L275 134 L275 462 L8 462 L8 134 Z"/>
</clipPath>
<clipPath clipPathUnits="userSpaceOnUse" id="clipPath56">
<path d="M14 138 L65 138 L65 155 L14 155 L14 138 Z"/>
</clipPath>
<clipPath clipPathUnits="userSpaceOnUse" id="clipPath57">
<path d="M59 174 L59 243 L208 243 L208 174 Z"/>
</clipPath>
<clipPath clipPathUnits="userSpaceOnUse" id="clipPath58">
<path d="M95 176 L172 176 L172 193 L95 193 L95 176 Z"/>
</clipPath>
<clipPath clipPathUnits="userSpaceOnUse" id="clipPath59">
<path d="M108 192 L159 192 L159 209 L108 209 L108 192 Z"/>
</clipPath>
<clipPath clipPathUnits="userSpaceOnUse" id="clipPath60">
<path d="M58 208 L210 208 L210 245 L58 245 L58 208 Z"/>
</clipPath>
<clipPath clipPathUnits="userSpaceOnUse" id="clipPath61">
<path d="M58 173 L210 173 L210 245 L58 245 L58 173 Z"/>
</clipPath>
<clipPath clipPathUnits="userSpaceOnUse" id="clipPath62">
<path d="M21 319 L21 420 L120 420 L120 319 Z"/>
</clipPath>
<clipPath clipPathUnits="userSpaceOnUse" id="clipPath63">
<path d="M40 321 L101 321 L101 338 L40 338 L40 321 Z"/>
</clipPath>
<clipPath clipPathUnits="userSpaceOnUse" id="clipPath64">
<path d="M58 337 L84 337 L84 354 L58 354 L58 337 Z"/>
</clipPath>
<clipPath clipPathUnits="userSpaceOnUse" id="clipPath65">
<path d="M20 353 L122 353 L122 384 L20 384 L20 353 Z"/>
</clipPath>
<clipPath clipPathUnits="userSpaceOnUse" id="clipPath66">
<path d="M25 385 L115 385 L115 402 L25 402 L25 385 Z"/>
</clipPath>
<clipPath clipPathUnits="userSpaceOnUse" id="clipPath67">
<path d="M20 383 L122 383 L122 422 L20 422 L20 383 Z"/>
</clipPath>
<clipPath clipPathUnits="userSpaceOnUse" id="clipPath68">
<path d="M20 318 L122 318 L122 422 L20 422 L20 318 Z"/>
</clipPath>
<clipPath clipPathUnits="userSpaceOnUse" id="clipPath69">
<path d="M161 319 L161 420 L260 420 L260 319 Z"/>
</clipPath>
<clipPath clipPathUnits="userSpaceOnUse" id="clipPath70">
<path d="M180 321 L241 321 L241 338 L180 338 L180 321 Z"/>
</clipPath>
<clipPath clipPathUnits="userSpaceOnUse" id="clipPath71">
<path d="M198 337 L224 337 L224 354 L198 354 L198 337 Z"/>
</clipPath>
<clipPath clipPathUnits="userSpaceOnUse" id="clipPath72">
<path d="M160 353 L262 353 L262 384 L160 384 L160 353 Z"/>
</clipPath>
<clipPath clipPathUnits="userSpaceOnUse" id="clipPath73">
<path d="M165 385 L248 385 L248 402 L165 402 L165 385 Z"/>
</clipPath>
<clipPath clipPathUnits="userSpaceOnUse" id="clipPath74">
<path d="M160 383 L262 383 L262 422 L160 422 L160 383 Z"/>
</clipPath>
<clipPath clipPathUnits="userSpaceOnUse" id="clipPath75">
<path d="M160 318 L262 318 L262 422 L160 422 L160 318 Z"/>
</clipPath>
<clipPath clipPathUnits="userSpaceOnUse" id="clipPath76">
<path d="M9 156 L274 156 L274 461 L9 461 L9 156 Z"/>
</clipPath>
<clipPath clipPathUnits="userSpaceOnUse" id="clipPath77">
<path d="M806 433 L806 785 L1026 785 L1026 454 L858 454 L858 433 Z"/>
</clipPath>
<clipPath clipPathUnits="userSpaceOnUse" id="clipPath78">
<path d="M804 431 L1028 431 L1028 787 L804 787 L804 431 Z"/>
</clipPath>
<clipPath clipPathUnits="userSpaceOnUse" id="clipPath79">
<path d="M810 435 L854 435 L854 452 L810 452 L810 435 Z"/>
</clipPath>
<clipPath clipPathUnits="userSpaceOnUse" id="clipPath80">
<path d="M832 696 L832 765 L993 765 L993 696 Z"/>
</clipPath>
<clipPath clipPathUnits="userSpaceOnUse" id="clipPath81">
<path d="M874 698 L951 698 L951 715 L874 715 L874 698 Z"/>
</clipPath>
<clipPath clipPathUnits="userSpaceOnUse" id="clipPath82">
<path d="M832 714 L994 714 L994 731 L832 731 L832 714 Z"/>
</clipPath>
<clipPath clipPathUnits="userSpaceOnUse" id="clipPath83">
<path d="M831 730 L995 730 L995 767 L831 767 L831 730 Z"/>
</clipPath>
<clipPath clipPathUnits="userSpaceOnUse" id="clipPath84">
<path d="M831 695 L995 695 L995 767 L831 767 L831 695 Z"/>
</clipPath>
<clipPath clipPathUnits="userSpaceOnUse" id="clipPath85">
<path d="M838 472 L838 541 L987 541 L987 472 Z"/>
</clipPath>
<clipPath clipPathUnits="userSpaceOnUse" id="clipPath86">
<path d="M874 474 L951 474 L951 491 L874 491 L874 474 Z"/>
</clipPath>
<clipPath clipPathUnits="userSpaceOnUse" id="clipPath87">
<path d="M868 490 L957 490 L957 507 L868 507 L868 490 Z"/>
</clipPath>
<clipPath clipPathUnits="userSpaceOnUse" id="clipPath88">
<path d="M837 506 L989 506 L989 543 L837 543 L837 506 Z"/>
</clipPath>
<clipPath clipPathUnits="userSpaceOnUse" id="clipPath89">
<path d="M837 471 L989 471 L989 543 L837 543 L837 471 Z"/>
</clipPath>
<clipPath clipPathUnits="userSpaceOnUse" id="clipPath90">
<path d="M863 569 L863 668 L962 668 L962 569 Z"/>
</clipPath>
<clipPath clipPathUnits="userSpaceOnUse" id="clipPath91">
<path d="M882 571 L943 571 L943 588 L882 588 L882 571 Z"/>
</clipPath>
<clipPath clipPathUnits="userSpaceOnUse" id="clipPath92">
<path d="M901 587 L925 587 L925 604 L901 604 L901 587 Z"/>
</clipPath>
<clipPath clipPathUnits="userSpaceOnUse" id="clipPath93">
<path d="M862 603 L964 603 L964 637 L862 637 L862 603 Z"/>
</clipPath>
<clipPath clipPathUnits="userSpaceOnUse" id="clipPath94">
<path d="M862 636 L964 636 L964 670 L862 670 L862 636 Z"/>
</clipPath>
<clipPath clipPathUnits="userSpaceOnUse" id="clipPath95">
<path d="M862 568 L964 568 L964 670 L862 670 L862 568 Z"/>
</clipPath>
<clipPath clipPathUnits="userSpaceOnUse" id="clipPath96">
<path d="M805 453 L1027 453 L1027 786 L805 786 L805 453 Z"/>
</clipPath>
<clipPath clipPathUnits="userSpaceOnUse" id="clipPath97">
<path d="M662 641 L662 740 L761 740 L761 641 Z"/>
</clipPath>
<clipPath clipPathUnits="userSpaceOnUse" id="clipPath98">
<path d="M681 643 L742 643 L742 660 L681 660 L681 643 Z"/>
</clipPath>
<clipPath clipPathUnits="userSpaceOnUse" id="clipPath99">
<path d="M675 659 L749 659 L749 676 L675 676 L675 659 Z"/>
</clipPath>
<clipPath clipPathUnits="userSpaceOnUse" id="clipPath100">
<path d="M661 675 L763 675 L763 709 L661 709 L661 675 Z"/>
</clipPath>
<clipPath clipPathUnits="userSpaceOnUse" id="clipPath101">
<path d="M661 708 L763 708 L763 742 L661 742 L661 708 Z"/>
</clipPath>
<clipPath clipPathUnits="userSpaceOnUse" id="clipPath102">
<path d="M661 640 L763 640 L763 742 L661 742 L661 640 Z"/>
</clipPath>
<clipPath clipPathUnits="userSpaceOnUse" id="clipPath103">
<path d="M331 319 L331 420 L430 420 L430 319 Z"/>
</clipPath>
<clipPath clipPathUnits="userSpaceOnUse" id="clipPath104">
<path d="M350 321 L411 321 L411 338 L350 338 L350 321 Z"/>
</clipPath>
<clipPath clipPathUnits="userSpaceOnUse" id="clipPath105">
<path d="M367 337 L394 337 L394 354 L367 354 L367 337 Z"/>
</clipPath>
<clipPath clipPathUnits="userSpaceOnUse" id="clipPath106">
<path d="M330 353 L432 353 L432 384 L330 384 L330 353 Z"/>
</clipPath>
<clipPath clipPathUnits="userSpaceOnUse" id="clipPath107">
<path d="M335 385 L377 385 L377 402 L335 402 L335 385 Z"/>
</clipPath>
<clipPath clipPathUnits="userSpaceOnUse" id="clipPath108">
<path d="M330 383 L432 383 L432 422 L330 422 L330 383 Z"/>
</clipPath>
<clipPath clipPathUnits="userSpaceOnUse" id="clipPath109">
<path d="M330 318 L432 318 L432 422 L330 422 L330 318 Z"/>
</clipPath>
<clipPath clipPathUnits="userSpaceOnUse" id="clipPath110">
<path d="M128 9 L525 9 L525 51 L128 51 L128 9 Z"/>
</clipPath>
<clipPath clipPathUnits="userSpaceOnUse" id="clipPath111">
<path d="M-1 -1 L1049 -1 L1049 796 L-1 796 L-1 -1 Z"/>
</clipPath>
<clipPath clipPathUnits="userSpaceOnUse" id="clipPath112">
<path d="M894 200 L907 200 L907 218 L894 218 L894 200 Z"/>
</clipPath>
<clipPath clipPathUnits="userSpaceOnUse" id="clipPath113">
<path d="M199 304 L216 304 L216 321 L199 321 L199 304 Z"/>
</clipPath>
<clipPath clipPathUnits="userSpaceOnUse" id="clipPath114">
<path d="M71 303 L87 303 L87 321 L71 321 L71 303 Z"/>
</clipPath>
<clipPath clipPathUnits="userSpaceOnUse" id="clipPath115">
<path d="M910 553 L923 553 L923 571 L910 571 L910 553 Z"/>
</clipPath>
<clipPath clipPathUnits="userSpaceOnUse" id="clipPath116">
<path d="M911 668 L924 668 L924 686 L911 686 L911 668 Z"/>
</clipPath>
<clipPath clipPathUnits="userSpaceOnUse" id="clipPath117">
<path d="M384 667 L402 667 L402 680 L384 680 L384 667 Z"/>
</clipPath>
<clipPath clipPathUnits="userSpaceOnUse" id="clipPath118">
<path d="M332 630 L351 630 L351 643 L332 643 L332 630 Z"/>
</clipPath>
<clipPath clipPathUnits="userSpaceOnUse" id="clipPath119">
<path d="M585 420 L598 420 L598 438 L585 438 L585 420 Z"/>
</clipPath>
<clipPath clipPathUnits="userSpaceOnUse" id="clipPath120">
<path d="M587 303 L600 303 L600 321 L587 321 L587 303 Z"/>
</clipPath>
<clipPath clipPathUnits="userSpaceOnUse" id="clipPath121">
<path d="M107 418 L126 418 L126 431 L107 431 L107 418 Z"/>
</clipPath>
<clipPath clipPathUnits="userSpaceOnUse" id="clipPath122">
<path d="M646 664 L664 664 L664 677 L646 677 L646 664 Z"/>
</clipPath>
<clipPath clipPathUnits="userSpaceOnUse" id="clipPath123">
<path d="M761 707 L779 707 L779 720 L761 720 L761 707 Z"/>
</clipPath>
<clipPath clipPathUnits="userSpaceOnUse" id="clipPath124">
<path d="M377 420 L396 420 L396 434 L377 434 L377 420 Z"/>
</clipPath>
<clipPath clipPathUnits="userSpaceOnUse" id="clipPath125">
<path d="M376 303 L389 303 L389 321 L376 321 L376 303 Z"/>
</clipPath>
<clipPath clipPathUnits="userSpaceOnUse" id="clipPath126">
<path d="M793 376 L812 376 L812 391 L793 391 L793 376 Z"/>
</clipPath>
<clipPath clipPathUnits="userSpaceOnUse" id="clipPath127">
<path d="M260 419 L279 419 L279 432 L260 432 L260 419 Z"/>
</clipPath>
<clipPath clipPathUnits="userSpaceOnUse" id="clipPath128">
<path d="M793 207 L812 207 L812 220 L793 220 L793 207 Z"/>
</clipPath>
</defs>
<g fill="url(#linearGradient1)" font-family="'Segoe UI'" stroke-linejoin="round" stroke="url(#linearGradient1)" stroke-width="0" stroke-miterlimit="0">
<rect x="448" y="641" clip-path="url(#clipPath1)" width="150" height="70" stroke="none"/>
<text x="485" y="657" clip-path="url(#clipPath2)" fill="black" stroke="none" xml:space="preserve">«component»</text>
<text x="487" y="673" clip-path="url(#clipPath3)" fill="black" stroke="none" xml:space="preserve">aq2rdb Client</text>
</g>
<g stroke-width="1.1" font-family="'Segoe UI'" stroke-linecap="butt">
<line clip-path="url(#clipPath4)" fill="none" x1="448" x2="598" y1="676" y2="676"/>
<rect x="448" y="641" clip-path="url(#clipPath5)" fill="none" width="149" rx="0" ry="0" height="69"/>
<rect x="518" y="494" clip-path="url(#clipPath6)" fill="url(#linearGradient2)" width="150" height="70" stroke="none"/>
<text xml:space="preserve" x="555" y="510" clip-path="url(#clipPath7)" stroke="none">«component»</text>
<text xml:space="preserve" x="556" y="526" clip-path="url(#clipPath8)" stroke="none">aq2rdb Server</text>
<line clip-path="url(#clipPath9)" fill="none" x1="518" x2="668" y1="529" y2="529"/>
<rect x="518" y="494" clip-path="url(#clipPath10)" fill="none" width="149" rx="0" ry="0" height="69"/>
<rect x="518" y="176" clip-path="url(#clipPath11)" fill="url(#linearGradient3)" width="150" height="70" stroke="none"/>
<text xml:space="preserve" x="555" y="192" clip-path="url(#clipPath12)" stroke="none">«component»</text>
<text xml:space="preserve" x="553" y="208" clip-path="url(#clipPath13)" stroke="none">aquarius-token</text>
<line clip-path="url(#clipPath14)" fill="none" x1="518" x2="668" y1="211" y2="211"/>
<rect x="518" y="176" clip-path="url(#clipPath15)" fill="none" width="149" rx="0" ry="0" height="69"/>
<rect x="304" y="174" clip-path="url(#clipPath16)" fill="url(#linearGradient4)" width="150" height="70" stroke="none"/>
<text xml:space="preserve" x="341" y="190" clip-path="url(#clipPath17)" stroke="none">«component»</text>
<text xml:space="preserve" x="325" y="206" clip-path="url(#clipPath18)" stroke="none">USGS Water Services</text>
<line clip-path="url(#clipPath19)" fill="none" x1="304" x2="454" y1="209" y2="209"/>
<rect x="304" y="174" clip-path="url(#clipPath20)" fill="none" width="149" rx="0" ry="0" height="69"/>
<rect x="285" y="641" clip-path="url(#clipPath21)" fill="url(#linearGradient5)" width="100" height="100" stroke="none"/>
<text xml:space="preserve" x="305" y="657" clip-path="url(#clipPath22)" stroke="none">«Interface»</text>
<text xml:space="preserve" x="316" y="673" clip-path="url(#clipPath23)" stroke="none">aq2rdb</text>
<line clip-path="url(#clipPath24)" fill="none" x1="285" x2="385" y1="676" y2="676"/>
<line clip-path="url(#clipPath25)" fill="none" x1="285" x2="385" y1="709" y2="709"/>
<rect x="285" y="641" clip-path="url(#clipPath26)" fill="none" width="99" rx="0" ry="0" height="99"/>
<rect x="543" y="319" clip-path="url(#clipPath27)" fill="url(#linearGradient6)" width="100" height="102" stroke="none"/>
<text xml:space="preserve" x="563" y="335" clip-path="url(#clipPath28)" stroke="none">«Interface»</text>
<text xml:space="preserve" x="572" y="351" clip-path="url(#clipPath29)" stroke="none">services</text>
<line clip-path="url(#clipPath30)" fill="none" x1="543" x2="643" y1="354" y2="354"/>
<text xml:space="preserve" x="548" y="399" clip-path="url(#clipPath31)" stroke="none"> + GetAQToken()</text>
<line clip-path="url(#clipPath32)" fill="none" x1="543" x2="643" y1="384" y2="384"/>
<rect x="543" y="319" clip-path="url(#clipPath33)" fill="none" width="99" rx="0" ry="0" height="101"/>
<rect x="759" y="48" clip-path="url(#clipPath34)" fill="url(#linearGradient7)" width="279" height="356" stroke="none"/>
<line clip-path="url(#clipPath35)" fill="none" x1="759" x2="827" y1="48" y2="48"/>
<line clip-path="url(#clipPath35)" fill="none" x1="827" x2="827" y1="48" y2="69"/>
<line clip-path="url(#clipPath35)" fill="none" x1="827" x2="1038" y1="69" y2="69"/>
<line clip-path="url(#clipPath35)" fill="none" x1="1038" x2="1038" y1="69" y2="404"/>
<line clip-path="url(#clipPath35)" fill="none" x1="1038" x2="759" y1="404" y2="404"/>
<line clip-path="url(#clipPath35)" fill="none" x1="759" x2="759" y1="404" y2="48"/>
<text xml:space="preserve" x="764" y="64" clip-path="url(#clipPath36)" stroke="none">AQUARIUS</text>
<rect x="827" y="92" clip-path="url(#clipPath37)" fill="url(#linearGradient8)" width="150" height="70" stroke="none"/>
<text xml:space="preserve" x="864" y="108" clip-path="url(#clipPath38)" stroke="none">«component»</text>
<text xml:space="preserve" x="873" y="124" clip-path="url(#clipPath39)" stroke="none">AQUARIUS</text>
<line clip-path="url(#clipPath40)" fill="none" x1="827" x2="977" y1="127" y2="127"/>
<rect x="827" y="92" clip-path="url(#clipPath41)" fill="none" width="149" rx="0" ry="0" height="69"/>
<rect x="810" y="216" clip-path="url(#clipPath42)" fill="url(#linearGradient9)" width="185" height="162" stroke="none"/>
<text xml:space="preserve" x="873" y="232" clip-path="url(#clipPath43)" stroke="none">«Interface»</text>
<text xml:space="preserve" x="895" y="248" clip-path="url(#clipPath44)" stroke="none">V2</text>
<line clip-path="url(#clipPath45)" fill="none" x1="810" x2="995" y1="251" y2="251"/>
<text xml:space="preserve" x="815" y="292" clip-path="url(#clipPath46)" stroke="none"> + Authenticate()</text>
<text xml:space="preserve" x="815" y="307" clip-path="url(#clipPath47)" stroke="none"> + GetLocationData()</text>
<text xml:space="preserve" x="815" y="322" clip-path="url(#clipPath48)" stroke="none"> + GetTimeSeriesCorrectedData()</text>
<text xml:space="preserve" x="815" y="337" clip-path="url(#clipPath49)" stroke="none"> + GetTimeSeriesDescriptionList()</text>
<text xml:space="preserve" x="815" y="352" clip-path="url(#clipPath50)" stroke="none"> + GetQualifierList()</text>
<line clip-path="url(#clipPath51)" fill="none" x1="810" x2="995" y1="277" y2="277"/>
<rect x="810" y="216" clip-path="url(#clipPath52)" fill="none" width="184" rx="0" ry="0" height="161"/>
<line clip-path="url(#clipPath53)" fill="none" x1="759" x2="1038" y1="69" y2="69"/>
<rect x="10" y="136" clip-path="url(#clipPath54)" fill="url(#linearGradient10)" width="263" height="324" stroke="none"/>
<line clip-path="url(#clipPath55)" fill="none" x1="10" x2="69" y1="136" y2="136"/>
<line clip-path="url(#clipPath55)" fill="none" x1="69" x2="69" y1="136" y2="157"/>
<line clip-path="url(#clipPath55)" fill="none" x1="69" x2="273" y1="157" y2="157"/>
<line clip-path="url(#clipPath55)" fill="none" x1="273" x2="273" y1="157" y2="460"/>
<line clip-path="url(#clipPath55)" fill="none" x1="273" x2="10" y1="460" y2="460"/>
<line clip-path="url(#clipPath55)" fill="none" x1="10" x2="10" y1="460" y2="136"/>
<text xml:space="preserve" x="15" y="152" clip-path="url(#clipPath56)" stroke="none">NWIS-RA</text>
<rect x="59" y="174" clip-path="url(#clipPath57)" fill="url(#linearGradient11)" width="150" height="70" stroke="none"/>
<text xml:space="preserve" x="96" y="190" clip-path="url(#clipPath58)" stroke="none">«component»</text>
<text xml:space="preserve" x="109" y="206" clip-path="url(#clipPath59)" stroke="none">NWIS-RA</text>
<line clip-path="url(#clipPath60)" fill="none" x1="59" x2="209" y1="209" y2="209"/>
<rect x="59" y="174" clip-path="url(#clipPath61)" fill="none" width="149" rx="0" ry="0" height="69"/>
<rect x="21" y="319" clip-path="url(#clipPath62)" fill="url(#linearGradient12)" width="100" height="102" stroke="none"/>
<text xml:space="preserve" x="41" y="335" clip-path="url(#clipPath63)" stroke="none">«Interface»</text>
<text xml:space="preserve" x="59" y="351" clip-path="url(#clipPath64)" stroke="none">auth</text>
<line clip-path="url(#clipPath65)" fill="none" x1="21" x2="121" y1="354" y2="354"/>
<text xml:space="preserve" x="26" y="399" clip-path="url(#clipPath66)" stroke="none"> + authenticate()</text>
<line clip-path="url(#clipPath67)" fill="none" x1="21" x2="121" y1="384" y2="384"/>
<rect x="21" y="319" clip-path="url(#clipPath68)" fill="none" width="99" rx="0" ry="0" height="101"/>
<rect x="161" y="319" clip-path="url(#clipPath69)" fill="url(#linearGradient13)" width="100" height="102" stroke="none"/>
<text xml:space="preserve" x="181" y="335" clip-path="url(#clipPath70)" stroke="none">«Interface»</text>
<text xml:space="preserve" x="199" y="351" clip-path="url(#clipPath71)" stroke="none">view</text>
<line clip-path="url(#clipPath72)" fill="none" x1="161" x2="261" y1="354" y2="354"/>
<text xml:space="preserve" x="166" y="399" clip-path="url(#clipPath73)" stroke="none"> + parameters()</text>
<line clip-path="url(#clipPath74)" fill="none" x1="161" x2="261" y1="384" y2="384"/>
<rect x="161" y="319" clip-path="url(#clipPath75)" fill="none" width="99" rx="0" ry="0" height="101"/>
<line clip-path="url(#clipPath76)" fill="none" x1="10" x2="273" y1="157" y2="157"/>
<rect x="806" y="433" clip-path="url(#clipPath77)" fill="url(#linearGradient14)" width="220" height="352" stroke="none"/>
<line clip-path="url(#clipPath78)" fill="none" x1="806" x2="858" y1="433" y2="433"/>
<line clip-path="url(#clipPath78)" fill="none" x1="858" x2="858" y1="433" y2="454"/>
<line clip-path="url(#clipPath78)" fill="none" x1="858" x2="1026" y1="454" y2="454"/>
<line clip-path="url(#clipPath78)" fill="none" x1="1026" x2="1026" y1="454" y2="785"/>
<line clip-path="url(#clipPath78)" fill="none" x1="1026" x2="806" y1="785" y2="785"/>
<line clip-path="url(#clipPath78)" fill="none" x1="806" x2="806" y1="785" y2="433"/>
<text xml:space="preserve" x="811" y="449" clip-path="url(#clipPath79)" stroke="none">GCMRC</text>
<rect x="832" y="696" clip-path="url(#clipPath80)" fill="url(#linearGradient15)" width="162" height="70" stroke="none"/>
<text xml:space="preserve" x="875" y="712" clip-path="url(#clipPath81)" stroke="none">«component»</text>
<text xml:space="preserve" x="833" y="728" clip-path="url(#clipPath82)" stroke="none">gdaws-synchronization-adaps</text>
<line clip-path="url(#clipPath83)" fill="none" x1="832" x2="994" y1="731" y2="731"/>
<rect x="832" y="696" clip-path="url(#clipPath84)" fill="none" width="161" rx="0" ry="0" height="69"/>
<rect x="838" y="472" clip-path="url(#clipPath85)" fill="url(#linearGradient16)" width="150" height="70" stroke="none"/>
<text xml:space="preserve" x="875" y="488" clip-path="url(#clipPath86)" stroke="none">«component»</text>
<text xml:space="preserve" x="869" y="504" clip-path="url(#clipPath87)" stroke="none">gdaws-autoproc</text>
<line clip-path="url(#clipPath88)" fill="none" x1="838" x2="988" y1="507" y2="507"/>
<rect x="838" y="472" clip-path="url(#clipPath89)" fill="none" width="149" rx="0" ry="0" height="69"/>
<rect x="863" y="569" clip-path="url(#clipPath90)" fill="url(#linearGradient17)" width="100" height="100" stroke="none"/>
<text xml:space="preserve" x="883" y="585" clip-path="url(#clipPath91)" stroke="none">«Interface»</text>
<text xml:space="preserve" x="902" y="601" clip-path="url(#clipPath92)" stroke="none">RDB</text>
<line clip-path="url(#clipPath93)" fill="none" x1="863" x2="963" y1="604" y2="604"/>
<line clip-path="url(#clipPath94)" fill="none" x1="863" x2="963" y1="637" y2="637"/>
<rect x="863" y="569" clip-path="url(#clipPath95)" fill="none" width="99" rx="0" ry="0" height="99"/>
<line clip-path="url(#clipPath96)" fill="none" x1="806" x2="1026" y1="454" y2="454"/>
<rect x="662" y="641" clip-path="url(#clipPath97)" fill="url(#linearGradient18)" width="100" height="100" stroke="none"/>
<text xml:space="preserve" x="682" y="657" clip-path="url(#clipPath98)" stroke="none">«Interface»</text>
<text xml:space="preserve" x="676" y="673" clip-path="url(#clipPath99)" stroke="none">aq2rdb Client</text>
<line clip-path="url(#clipPath100)" fill="none" x1="662" x2="762" y1="676" y2="676"/>
<line clip-path="url(#clipPath101)" fill="none" x1="662" x2="762" y1="709" y2="709"/>
<rect x="662" y="641" clip-path="url(#clipPath102)" fill="none" width="99" rx="0" ry="0" height="99"/>
<rect x="331" y="319" clip-path="url(#clipPath103)" fill="url(#linearGradient19)" width="100" height="102" stroke="none"/>
<text xml:space="preserve" x="351" y="335" clip-path="url(#clipPath104)" stroke="none">«Interface»</text>
<text xml:space="preserve" x="368" y="351" clip-path="url(#clipPath105)" stroke="none">nwis</text>
<line clip-path="url(#clipPath106)" fill="none" x1="331" x2="431" y1="354" y2="354"/>
<text xml:space="preserve" x="336" y="399" clip-path="url(#clipPath107)" stroke="none"> + site()</text>
<line clip-path="url(#clipPath108)" fill="none" x1="331" x2="431" y1="384" y2="384"/>
<rect x="331" y="319" clip-path="url(#clipPath109)" fill="none" width="99" rx="0" ry="0" height="101"/>
<text x="129" font-size="29" y="42" clip-path="url(#clipPath110)" stroke="none" font-weight="bold" xml:space="preserve">aq2rdb Component Diagram</text>
<line clip-path="url(#clipPath111)" fill="none" text-rendering="optimizeLegibility" x1="900" x2="900" y1="162" y2="216" stroke-dasharray="5,5,5,5,5,5,5,5,5,5"/>
</g>
<g stroke-linecap="butt" fill="white" text-rendering="optimizeLegibility" font-family="'Segoe UI'" stroke-dasharray="5,5,5,5,5,5,5,5,5,5" stroke="white" stroke-width="1.1">
<polygon clip-path="url(#clipPath112)" points=" 900 216 895 201 905 201" stroke="none"/>
<polygon fill="none" stroke-dasharray="none" clip-path="url(#clipPath112)" points=" 900 216 895 201 905 201" stroke="black"/>
<line clip-path="url(#clipPath111)" fill="none" x1="143" x2="214" y1="244" y2="319" stroke="black"/>
<polygon clip-path="url(#clipPath113)" points=" 214 319 200 312 207 305" stroke="none"/>
<polygon fill="none" stroke-dasharray="none" clip-path="url(#clipPath113)" points=" 214 319 200 312 207 305" stroke="black"/>
<line clip-path="url(#clipPath111)" fill="none" x1="135" x2="72" y1="244" y2="319" stroke="black"/>
<polygon clip-path="url(#clipPath114)" points=" 72 319 78 304 85 311" stroke="none"/>
<polygon fill="none" stroke-dasharray="none" clip-path="url(#clipPath114)" points=" 72 319 78 304 85 311" stroke="black"/>
<line clip-path="url(#clipPath111)" fill="none" x1="916" x2="915" y1="542" y2="569" stroke="black"/>
<line clip-path="url(#clipPath115)" fill="none" x1="911" x2="915" y1="554" y2="569" stroke-dasharray="none" stroke="black"/>
<line clip-path="url(#clipPath115)" fill="none" x1="915" x2="921" y1="569" y2="554" stroke-dasharray="none" stroke="black"/>
<line clip-path="url(#clipPath111)" fill="none" x1="917" x2="917" y1="696" y2="680" stroke="black"/>
<line clip-path="url(#clipPath111)" fill="none" x1="917" x2="917" y1="680" y2="669" stroke="black"/>
<polygon clip-path="url(#clipPath116)" points=" 917 669 922 684 912 684" stroke="none"/>
<polygon fill="none" stroke-dasharray="none" clip-path="url(#clipPath116)" points=" 917 669 922 684 912 684" stroke="black"/>
<line clip-path="url(#clipPath111)" fill="none" x1="448" x2="385" y1="673" y2="673" stroke="black"/>
<line clip-path="url(#clipPath117)" fill="none" x1="400" x2="385" y1="668" y2="673" stroke-dasharray="none" stroke="black"/>
<line clip-path="url(#clipPath117)" fill="none" x1="385" x2="400" y1="673" y2="678" stroke-dasharray="none" stroke="black"/>
<line clip-path="url(#clipPath111)" fill="none" x1="518" x2="333" y1="562" y2="641" stroke="black"/>
<polygon clip-path="url(#clipPath118)" points=" 333 641 345 631 349 640" stroke="none"/>
<polygon fill="none" stroke-dasharray="none" clip-path="url(#clipPath118)" points=" 333 641 345 631 349 640" stroke="black"/>
<line clip-path="url(#clipPath111)" fill="none" x1="591" x2="591" y1="494" y2="421" stroke="black"/>
<line clip-path="url(#clipPath119)" fill="none" x1="596" x2="591" y1="436" y2="421" stroke-dasharray="none" stroke="black"/>
<line clip-path="url(#clipPath119)" fill="none" x1="591" x2="586" y1="421" y2="436" stroke-dasharray="none" stroke="black"/>
<line clip-path="url(#clipPath111)" fill="none" x1="593" x2="593" y1="246" y2="319" stroke="black"/>
<polygon clip-path="url(#clipPath120)" points=" 593 319 588 304 598 304" stroke="none"/>
<polygon fill="none" stroke-dasharray="none" clip-path="url(#clipPath120)" points=" 593 319 588 304 598 304" stroke="black"/>
<line clip-path="url(#clipPath111)" fill="none" x1="135" x2="72" y1="244" y2="319" stroke="black"/>
<polygon clip-path="url(#clipPath114)" points=" 72 319 78 304 85 311" stroke="none"/>
<polygon fill="none" stroke-dasharray="none" clip-path="url(#clipPath114)" points=" 72 319 78 304 85 311" stroke="black"/>
<line clip-path="url(#clipPath111)" fill="none" x1="518" x2="108" y1="494" y2="421" stroke="black"/>
<line clip-path="url(#clipPath121)" fill="none" x1="124" x2="108" y1="419" y2="421" stroke-dasharray="none" stroke="black"/>
<line clip-path="url(#clipPath121)" fill="none" x1="108" x2="122" y1="421" y2="429" stroke-dasharray="none" stroke="black"/>
<line clip-path="url(#clipPath111)" fill="none" x1="598" x2="662" y1="670" y2="670" stroke="black"/>
<polygon clip-path="url(#clipPath122)" points=" 662 670 647 675 647 665" stroke="none"/>
<polygon fill="none" stroke-dasharray="none" clip-path="url(#clipPath122)" points=" 662 670 647 675 647 665" stroke="black"/>
<line clip-path="url(#clipPath111)" fill="none" x1="832" x2="762" y1="713" y2="713" stroke="black"/>
<line clip-path="url(#clipPath123)" fill="none" x1="777" x2="762" y1="708" y2="713" stroke-dasharray="none" stroke="black"/>
<line clip-path="url(#clipPath123)" fill="none" x1="762" x2="777" y1="713" y2="718" stroke-dasharray="none" stroke="black"/>
<line clip-path="url(#clipPath111)" fill="none" x1="518" x2="378" y1="494" y2="421" stroke="black"/>
<line clip-path="url(#clipPath124)" fill="none" x1="394" x2="378" y1="424" y2="421" stroke-dasharray="none" stroke="black"/>
<line clip-path="url(#clipPath124)" fill="none" x1="378" x2="389" y1="421" y2="432" stroke-dasharray="none" stroke="black"/>
<line clip-path="url(#clipPath111)" fill="none" x1="380" x2="382" y1="244" y2="319" stroke="black"/>
<polygon clip-path="url(#clipPath125)" points=" 382 319 377 304 387 304" stroke="none"/>
<polygon fill="none" stroke-dasharray="none" clip-path="url(#clipPath125)" points=" 382 319 377 304 387 304" stroke="black"/>
<line clip-path="url(#clipPath111)" fill="none" x1="900" x2="900" y1="162" y2="216" stroke="black"/>
<polygon clip-path="url(#clipPath112)" points=" 900 216 895 201 905 201" stroke="none"/>
<polygon fill="none" stroke-dasharray="none" clip-path="url(#clipPath112)" points=" 900 216 895 201 905 201" stroke="black"/>
<line clip-path="url(#clipPath111)" fill="none" x1="597" x2="810" y1="494" y2="377" stroke="black"/>
<line clip-path="url(#clipPath126)" fill="none" x1="799" x2="810" y1="389" y2="377" stroke-dasharray="none" stroke="black"/>
<line clip-path="url(#clipPath126)" fill="none" x1="810" x2="794" y1="377" y2="380" stroke-dasharray="none" stroke="black"/>
<line clip-path="url(#clipPath111)" fill="none" x1="143" x2="214" y1="244" y2="319" stroke="black"/>
<polygon clip-path="url(#clipPath113)" points=" 214 319 200 312 207 305" stroke="none"/>
<polygon fill="none" stroke-dasharray="none" clip-path="url(#clipPath113)" points=" 214 319 200 312 207 305" stroke="black"/>
<line clip-path="url(#clipPath111)" fill="none" x1="518" x2="261" y1="494" y2="421" stroke="black"/>
<line clip-path="url(#clipPath127)" fill="none" x1="277" x2="261" y1="420" y2="421" stroke-dasharray="none" stroke="black"/>
<line clip-path="url(#clipPath127)" fill="none" x1="261" x2="274" y1="421" y2="430" stroke-dasharray="none" stroke="black"/>
<line clip-path="url(#clipPath111)" fill="none" x1="917" x2="917" y1="696" y2="680" stroke="black"/>
<line clip-path="url(#clipPath111)" fill="none" x1="917" x2="917" y1="680" y2="669" stroke="black"/>
<polygon clip-path="url(#clipPath116)" points=" 917 669 922 684 912 684" stroke="none"/>
<polygon fill="none" stroke-dasharray="none" clip-path="url(#clipPath116)" points=" 917 669 922 684 912 684" stroke="black"/>
<line clip-path="url(#clipPath111)" fill="none" x1="916" x2="915" y1="542" y2="569" stroke="black"/>
<line clip-path="url(#clipPath115)" fill="none" x1="911" x2="915" y1="554" y2="569" stroke-dasharray="none" stroke="black"/>
<line clip-path="url(#clipPath115)" fill="none" x1="915" x2="921" y1="569" y2="554" stroke-dasharray="none" stroke="black"/>
<line clip-path="url(#clipPath111)" fill="none" x1="668" x2="810" y1="190" y2="216" stroke="black"/>
<line clip-path="url(#clipPath128)" fill="none" x1="794" x2="810" y1="218" y2="216" stroke-dasharray="none" stroke="black"/>
<line clip-path="url(#clipPath128)" fill="none" x1="810" x2="796" y1="216" y2="208" stroke-dasharray="none" stroke="black"/>
</g>
</g>
</svg>
